<svg width="287" height="82" viewBox="0 0 287 82" fill="none" xmlns="http://www.w3.org/2000/svg">
<path d="M111.281 0.750008L7.80374 0.77774C3.64744 0.77774 0.619485 3.92637 0.625008 8.24441L0.641568 73.9615C0.641568 78.2796 3.67229 81.4253 7.82859 81.4196L111.305 81.3919C115.462 81.3919 118.49 78.2432 118.484 73.9252L118.468 8.20808C118.468 3.89005 115.437 0.744271 111.281 0.750008ZM56.6302 53.0694V60.9347L16.987 60.9453V47.2167C23.3181 45.5702 32.4029 43.2084 36.6696 41.9205C45.2031 39.3436 47.3365 37.198 47.3355 32.8369C47.3355 27.8314 43.3421 25.4018 36.8721 25.4037C30.6781 25.4037 25.5858 27.5522 25.8628 36.1319H16.2277C15.6755 25.9784 20.9031 17.4685 36.5951 17.4637C51.5968 17.4637 57.1069 24.0364 57.1087 32.2594C57.1087 38.6236 54.9781 43.9868 45.1368 47.1354C38.2554 49.3547 31.373 50.7143 24.5596 52.0032V53.076L56.6302 53.0694ZM104.672 56.4159H97.3768V62.1367H89.0495V56.4159L62.1394 56.4236V43.0526C74.4573 36.3996 82.5711 24.3118 84.364 18.2354H95.306C88.6335 31.2507 76.6616 43.6951 69.3669 47.4873V49.0602L89.0504 49.0544V38.1867H97.3778V49.0544H104.673L104.672 56.4159Z" fill="black"/>
<path d="M247.267 81.3998L166.204 81.4132C142.213 81.4199 126.706 65.8277 126.7 41.6798V40.5324C126.694 16.3883 142.192 0.783767 166.183 0.777073L247.246 0.763674C271.238 0.756981 286.744 16.3491 286.75 40.4971V41.6445C286.756 65.7885 271.258 81.3931 247.267 81.3998ZM166.184 2.76016C143.35 2.76589 128.599 17.5941 128.604 40.5353V41.6827C128.61 64.6239 143.369 79.4435 166.203 79.4368L247.265 79.4234C270.099 79.4177 284.85 64.5895 284.844 41.6483V40.5009C284.838 17.5597 270.081 2.74006 247.246 2.74676L166.184 2.76016Z" fill="black"/>
<path d="M191.424 18.1318V25.6607H207.957V61.8419H216.4V25.6607H232.934V18.1318H191.424Z" fill="black"/>
<path d="M147.682 18.1318V25.6607H164.216V61.8419H172.658V25.6607H189.192V18.1318H147.682Z" fill="black"/>
<path d="M243.368 53.8015V18.1318H234.925V61.8419H269.119V53.8015H243.368Z" fill="black"/>
</svg>
